<?xml version="1.0" encoding="utf-8"?>
<!-- Generator: Adobe Illustrator 21.0.0, SVG Export Plug-In . SVG Version: 6.00 Build 0)  -->
<svg version="1.1" id="Layer_1" xmlns="http://www.w3.org/2000/svg" xmlns:xlink="http://www.w3.org/1999/xlink" x="0px" y="0px"
	 viewBox="0 0 2004.2 744.1" style="enable-background:new 0 0 2004.2 744.1;" xml:space="preserve">
<style type="text/css">
	.st0{fill:#FFFFFF;}
</style>
<g>
	<path class="st0" d="M367.4,387.9c4.6-1.3,9.9-2.5,15.8-3.6s12-2,18.4-2.8s12.7-1.3,19.1-1.7c6.4-0.4,12.6-0.6,18.7-0.6h5.3v58.9
		c-9.8-0.9-21.6-1.7-35.4-2.2c-13.8-0.6-28.5-0.8-44-0.8c-11.6,0-22,0.3-31.3,0.8c-9.2,0.6-18.5,1.1-27.8,1.8
		c-9.3,0.6-19,1.2-29,1.8c-10.1,0.6-19.9,0.8-29.5,0.8c-29,0-54.5-4.6-76.6-13.8s-40.8-22.2-55.9-39s-26.6-36.8-34.3-60.2
		C73.2,304,69.3,278.2,69.3,250s4-54.1,12-77.6s19.7-43.8,35.1-60.7c15.4-17,34.3-30.2,56.7-39.6C195.5,62.7,221,58,249.6,58
		s54.1,4.7,76.5,14.1s41.3,22.5,56.7,39.3s27.1,36.7,35.1,59.9c8,23.1,12,48.5,12,75.9c0,14.4-1.4,28.4-4.2,42.1
		c-2.8,13.6-6.8,26.4-12,38.2c-5.3,11.8-11.9,22.8-19.8,33.1c-7.9,10.2-17,19-27.1,26.4L367.4,387.9z M360,250.2
		c0-22.5-2.8-42.2-8.3-59.1s-13.2-30.9-23-42.2s-21.4-19.6-34.9-25.2c-13.5-5.5-28.2-8.3-44.3-8.3c-16,0-30.8,2.8-44.3,8.3
		s-25.1,13.9-34.9,25.2s-17.4,25.3-23,42.2c-5.5,16.9-8.3,36.6-8.3,59.1s2.8,42.2,8.3,59.1s13.2,30.9,23,42.1s21.4,19.6,34.9,25.2
		s28.2,8.4,44.3,8.4c16,0,30.8-2.8,44.3-8.4s25.1-14,34.9-25.2s17.4-25.2,23-42.1C357.2,292.4,360,272.7,360,250.2z"/>
	<path class="st0" d="M762.1,176.3c0,25.8-7.2,47.7-21.4,65.7c-14.3,18-36.4,31.3-66.3,40v1.1l110.1,152.2h-81.3L602.5,291.9H556
		v143.3h-67.8V65.1h112.6c18.6,0,36,1.1,52,3.2c16,2.1,29.8,5.3,41.2,9.5c21.8,8.3,38.5,20.6,50.4,36.9
		C756.2,131.1,762.1,151.6,762.1,176.3z M589.5,235.2c15.5,0,28.6-0.7,39.4-2.1s19.9-3.5,27.2-6.2c13.7-5.2,23.1-12.2,28.4-21.2
		c5.3-8.9,7.9-19.2,7.9-30.8c0-10-2.1-18.8-6.2-26.4c-4.1-7.7-11.2-13.7-21.2-18.1c-6.5-2.9-14.6-5.1-24.3-6.5
		c-9.8-1.4-21.9-2.1-36.2-2.1h-48.4v113.4L589.5,235.2L589.5,235.2z"/>
	<path class="st0" d="M774.2,167.2h70.3l40.1,97.1c15.1,36.9,25.8,64.2,32.1,81.9h1.1c4.6-13.8,14.4-39.5,29.3-76.9l41.5-102.1h71.1
		L887,563.9h-64.7l61.4-143.6L774.2,167.2z"/>
	<path class="st0" d="M1056.2,306.6c0-23.4,3.2-44.3,9.7-62.7c6.5-18.3,15.3-33.8,26.4-46.2c11.2-12.5,23.9-21.8,38.3-27.9
		c14.4-6.2,29.3-9.3,44.8-9.3c7.2,0,14,0.6,20.5,1.9s12.5,3,18.3,5.3c5.7,2.2,11.1,4.7,16,7.5c5,2.8,9.6,5.6,13.8,8.6h0.6
		c-0.2-3.7-0.3-8.9-0.4-15.6c-0.1-6.7-0.1-14.1-0.1-22V34.7h65.6v320.9c0,17.7,0.2,32.9,0.6,45.6c0.4,12.7,0.7,24.1,1.1,34h-59.2
		l-2.8-28.5h-1.1c-3.9,4.6-8.5,9.1-14,13.6c-5.4,4.4-11.4,8.3-18,11.5c-6.5,3.2-13.7,5.8-21.6,7.6c-7.8,1.8-16.4,2.8-25.6,2.8
		c-14.6,0-28.5-2.6-41.9-7.7c-13.4-5.2-25.4-13.1-36-23.9c-10.6-10.8-19.1-24.9-25.5-42.3C1059.4,350.7,1056.2,330.2,1056.2,306.6z
		 M1185.4,389.9c6.4,0,12.6-0.8,18.4-2.5s11.3-3.9,16.5-6.6c5.2-2.8,9.7-5.8,13.7-9.1c4-3.3,7.3-6.5,10.1-9.7V234.7
		c-7.7-6.3-16.4-11.5-26-15.6s-19.7-6.2-30.4-6.2c-6.8,0-14,1.4-21.4,4.1c-7.5,2.8-14.3,7.5-20.5,14.1s-11.3,15.9-15.5,27.7
		c-4.1,11.8-6.2,26.8-6.2,45.1c0,26.9,5.2,48,15.6,63.1C1150.1,382,1165.3,389.7,1185.4,389.9z"/>
	<path class="st0" d="M1495.7,389.3c12.7,0,26-1.3,39.8-3.9s27.8-6.3,42.1-11.1v52.3c-8.5,3.7-21.5,7.2-39,10.5s-35.7,5-54.5,5
		c-19,0-37-2.4-54.1-7.3s-32-12.8-44.7-23.7c-12.7-10.9-22.8-25-30.3-42.3s-11.2-38.4-11.2-63.1c0-24.3,3.5-45.6,10.5-63.9
		s16.4-33.4,28.2-45.4s25.3-21,40.5-27s30.9-9,47.2-9c17,0,32.6,2.6,46.9,7.7c14.3,5.2,26.6,13.3,37.1,24.3
		c10.4,11.1,18.5,25.3,24.3,42.7c5.8,17.4,8.7,38,8.7,61.8c-0.2,9.2-0.5,17.1-0.8,23.5h-175.7c0.9,12.4,3.7,22.9,8.3,31.7
		c4.6,8.8,10.7,15.9,18.1,21.3c7.5,5.4,16.2,9.4,26.1,11.9C1473.3,388.1,1484.1,389.3,1495.7,389.3z M1469.4,211.7
		c-8.3,0-15.7,1.5-22.1,4.6c-6.5,3-12,7.2-16.7,12.5s-8.4,11.4-11.2,18.4s-4.6,14.5-5.5,22.4h105.3c0-7.9-1.1-15.4-3.2-22.4
		c-2.1-7-5.3-13.1-9.4-18.4c-4.1-5.3-9.3-9.4-15.5-12.5C1485,213.2,1477.7,211.7,1469.4,211.7z"/>
</g>
<g>
	<path class="st0" d="M529.6,665.3h-13.1l14.9-71.8h18c6.8,0,12,0.6,15.6,1.8c4.3,1.4,7.4,3.6,9.3,6.5s2.9,6.3,2.9,10.1
		s-0.7,7.2-2.2,10.3s-3.6,5.8-6.5,8.1s-6.4,4-10.5,5.3s-9,1.9-14.4,1.9c-2.8,0-5.4-0.2-8-0.5L529.6,665.3z M537.7,626
		c1.8,0.3,3.9,0.5,6.3,0.5c3.4,0,6.3-0.3,8.8-1s4.6-1.6,6.2-2.8s2.9-2.7,3.7-4.4c0.8-1.7,1.2-3.6,1.2-5.7c0-1.7-0.4-3.1-1.3-4.2
		c-0.9-1.1-2.1-2-3.6-2.6c-0.9-0.4-2.1-0.7-3.5-0.9s-3.2-0.3-5.4-0.3h-8L537.7,626z"/>
	<path class="st0" d="M608.8,612c3.1,0,5.9,0.4,8.3,1.2c2.5,0.8,4.6,2,6.4,3.7c1.8,1.6,3.1,3.7,4.1,6.2s1.4,5.4,1.4,8.7
		c0,4.6-0.6,9-1.9,13.2s-3.1,7.9-5.6,11.1c-2.5,3.2-5.5,5.8-9.1,7.7s-7.9,2.9-12.7,2.9c-3,0-5.8-0.4-8.3-1.2s-4.6-2-6.4-3.7
		c-1.8-1.6-3.1-3.7-4.1-6.1c-1-2.5-1.4-5.4-1.4-8.7c0-4.6,0.6-9,1.9-13.2s3.1-7.9,5.6-11.1s5.5-5.8,9.1-7.7S604,612,608.8,612z
		 M607.7,622.5c-1.7,0-3.3,0.3-4.7,1s-2.7,1.6-3.9,2.8c-1.1,1.2-2.1,2.6-3,4.2c-0.8,1.6-1.5,3.3-2.1,5.1s-1,3.7-1.3,5.6
		c-0.3,1.9-0.4,3.8-0.4,5.6c0,3,0.7,5.3,2.1,7s3.5,2.6,6.5,2.6c1.7,0,3.3-0.3,4.7-1s2.7-1.6,3.9-2.8c1.1-1.2,2.1-2.6,3-4.2
		c0.9-1.6,1.6-3.3,2.1-5.1c0.6-1.8,1-3.7,1.3-5.6c0.3-1.9,0.4-3.8,0.4-5.6c0-2.9-0.7-5.3-2.1-7C612.8,623.3,610.6,622.5,607.7,622.5
		z"/>
	<path class="st0" d="M675.6,665.3l-1.6-21.2c-0.3-5.2-0.6-10.3-0.8-15.4h-0.3c-1.2,3.9-3,8.9-5.4,15l-8.6,21.6h-12.4l-10-52h12.7
		l3.5,20.8c0.8,5.2,1.5,10.2,2,15.3h0.3c1.5-4.9,3.3-9.8,5.3-14.8l8.8-21.4h12.7l1.6,19.5c0.4,4.9,0.7,10.5,1,16.7h0.3
		c2.8-6.7,5.5-12.4,7.9-17.1l10.1-19.1H717l-29.5,52h-11.9V665.3z"/>
	<path class="st0" d="M763.3,626.3c0,2.9-0.7,5.5-2.1,7.8s-3.5,4.3-6.2,5.9c-2.8,1.6-6.2,2.9-10.2,3.7c-4,0.9-8.7,1.3-13.9,1.3
		c-0.6,0-1.4,0-2.3-0.1v0.3c0,1.9,0.3,3.5,0.8,5c0.6,1.4,1.4,2.6,2.4,3.5c1.1,0.9,2.3,1.5,3.8,2c1.5,0.4,3.2,0.6,5,0.6
		c2.8,0,5.7-0.3,8.8-1c3.1-0.7,5.8-1.6,8-2.7l-2.3,11.2c-2.2,0.9-4.7,1.6-7.6,2.2s-5.9,0.8-9.1,0.8c-3.8,0-7.2-0.5-10-1.6
		c-2.8-1-5.2-2.5-7-4.4s-3.2-4.1-4.1-6.7c-0.9-2.6-1.3-5.4-1.3-8.5c0-2.8,0.3-5.5,0.9-8.2s1.4-5.3,2.5-7.8s2.5-4.8,4.1-6.9
		c1.6-2.1,3.5-4,5.7-5.5c2.2-1.6,4.6-2.8,7.3-3.7c2.7-0.9,5.6-1.3,8.7-1.3c2.8,0,5.2,0.3,7.5,1c2.2,0.7,4.1,1.6,5.7,2.9
		c1.6,1.2,2.8,2.7,3.6,4.5C762.9,622.2,763.3,624.1,763.3,626.3z M750.6,626.3c0-1.2-0.5-2.2-1.4-3.1c-0.9-0.9-2.3-1.3-4.2-1.3
		c-1.4,0-2.9,0.3-4.4,0.9c-1.5,0.6-2.9,1.4-4.2,2.5c-1.3,1.1-2.5,2.5-3.5,4.1s-1.9,3.5-2.5,5.6c3.8,0,7-0.2,9.5-0.8
		c2.6-0.5,4.6-1.2,6.2-2s2.7-1.8,3.4-2.8C750.2,628.5,750.6,627.4,750.6,626.3z"/>
	<path class="st0" d="M806.4,624.2c-1.5-0.4-3-0.5-4.5-0.5c-1.3,0-2.6,0.1-3.9,0.4c-1.3,0.3-2.6,0.8-3.9,1.4
		c-1.3,0.6-2.4,1.5-3.5,2.5c-1.1,1.1-2.1,2.4-2.9,3.9c-0.4,0.8-0.8,1.7-1.2,2.7c-0.4,1.1-0.8,2.6-1.2,4.5l-5.4,26.1h-12.7l10.8-52
		h10.8v6.5h0.2c2-2.5,4.3-4.4,6.8-5.8c2.5-1.4,5.4-2.1,8.8-2.1c1.3,0,2.7,0.1,4.1,0.3L806.4,624.2z"/>
	<path class="st0" d="M855.9,626.3c0,2.9-0.7,5.5-2.1,7.8s-3.5,4.3-6.3,5.9c-2.8,1.6-6.2,2.9-10.2,3.7c-4,0.9-8.7,1.3-13.9,1.3
		c-0.6,0-1.4,0-2.3-0.1v0.3c0,1.9,0.3,3.5,0.8,5c0.6,1.4,1.4,2.6,2.4,3.5c1.1,0.9,2.3,1.5,3.8,2c1.5,0.4,3.2,0.6,5,0.6
		c2.8,0,5.7-0.3,8.8-1c3.1-0.7,5.8-1.6,8-2.7l-2.3,11.2c-2.2,0.9-4.7,1.6-7.6,2.2c-2.8,0.6-5.9,0.8-9.1,0.8c-3.8,0-7.2-0.5-10-1.6
		c-2.8-1-5.2-2.5-7-4.4s-3.2-4.1-4.1-6.7c-0.9-2.6-1.3-5.4-1.3-8.5c0-2.8,0.3-5.5,0.9-8.2s1.4-5.3,2.5-7.8s2.5-4.8,4.1-6.9
		c1.6-2.1,3.5-4,5.7-5.5c2.2-1.6,4.6-2.8,7.3-3.7c2.7-0.9,5.6-1.3,8.7-1.3c2.8,0,5.2,0.3,7.5,1c2.2,0.7,4.1,1.6,5.7,2.9
		c1.6,1.2,2.8,2.7,3.6,4.5C855.5,622.2,855.9,624.1,855.9,626.3z M843.1,626.3c0-1.2-0.5-2.2-1.4-3.1s-2.3-1.3-4.2-1.3
		c-1.4,0-2.9,0.3-4.4,0.9c-1.5,0.6-2.9,1.4-4.2,2.5c-1.3,1.1-2.5,2.5-3.5,4.1s-1.9,3.5-2.5,5.6c3.8,0,7-0.2,9.5-0.8
		c2.6-0.5,4.6-1.2,6.2-2s2.7-1.8,3.4-2.8C842.8,628.5,843.1,627.4,843.1,626.3z"/>
	<path class="st0" d="M904.6,652.8c0,0.8,0.2,1.5,0.7,2c0.4,0.5,1.2,0.7,2.3,0.7c1,0,2.3-0.1,3.8-0.3l-2.2,10.2
		c-1,0.2-2,0.4-3.2,0.5s-2.2,0.2-3.2,0.2c-2.9,0-5.2-0.7-6.7-2.1c-1.5-1.4-2.5-3.3-2.9-5.9H893c-2.5,3-5.1,5.2-8,6.5
		c-2.8,1.3-5.6,2-8.3,2c-2.3,0-4.4-0.4-6.3-1.3c-1.9-0.9-3.4-2.1-4.7-3.6c-1.3-1.6-2.3-3.5-3-5.7s-1-4.7-1-7.4
		c0-2.9,0.2-5.8,0.8-8.7c0.5-2.9,1.2-5.7,2.2-8.4c0.9-2.7,2.1-5.2,3.5-7.6c1.4-2.4,3-4.4,4.8-6.2s3.8-3.1,6-4.1s4.6-1.5,7.2-1.5
		s4.9,0.5,7,1.6s3.9,2.7,5.5,4.9h0.2l6.4-30.8H918l-12.9,61.9c-0.1,0.7-0.3,1.3-0.3,1.9C904.7,652,904.6,652.5,904.6,652.8z
		 M897.2,626.7c-0.3-0.5-0.7-0.9-1.3-1.4c-0.5-0.5-1.1-1-1.8-1.4c-0.7-0.4-1.4-0.8-2.3-1c-0.8-0.3-1.7-0.4-2.7-0.4
		c-1.7,0-3.2,0.4-4.6,1.2s-2.6,1.9-3.7,3.2s-2,2.9-2.8,4.6c-0.8,1.7-1.5,3.5-2,5.4s-0.9,3.7-1.2,5.5c-0.3,1.8-0.4,3.5-0.4,5
		c0,3,0.5,5.3,1.4,6.7s2.3,2.1,4.2,2.1c2,0,3.9-0.7,5.8-2.1c1.9-1.4,3.6-3.3,5.1-5.7c1.6-2.6,2.8-6,3.6-10.1L897.2,626.7z"/>
	<path class="st0" d="M964.9,610.2c-0.6,2.8-1.3,5.4-2,7.8h0.2c0.6-0.8,1.4-1.5,2.3-2.2s1.9-1.3,3-1.9c1.1-0.6,2.3-1,3.6-1.4
		c1.3-0.3,2.7-0.5,4.2-0.5c2.2,0,4.3,0.4,6.3,1.2s3.7,2,5.2,3.5s2.6,3.5,3.5,5.8s1.3,5,1.3,8.1c0,2.6-0.3,5.4-0.8,8.2
		s-1.3,5.6-2.4,8.2c-1.1,2.7-2.4,5.2-4.1,7.6c-1.6,2.4-3.6,4.4-5.8,6.2c-2.2,1.8-4.8,3.2-7.7,4.2s-6.1,1.6-9.6,1.6
		c-2.8,0-5.3-0.4-7.5-1.3c-2.2-0.9-4-2-5.6-3.5c-1.5-1.5-2.7-3.2-3.5-5.2s-1.2-4.2-1.2-6.5c0-0.9,0.1-1.9,0.2-2.9s0.3-2.3,0.6-3.9
		l11.6-55.8h12.7L964.9,610.2z M957.8,645c-0.2,1.1-0.3,1.9-0.4,2.5s-0.1,1.1-0.1,1.6c0,2.2,0.5,3.9,1.6,5.2s2.6,2,4.7,2
		c1.8,0,3.4-0.4,4.8-1.1c1.5-0.8,2.8-1.8,4-3c1.2-1.3,2.3-2.7,3.2-4.4s1.7-3.4,2.3-5.3c0.6-1.8,1.1-3.7,1.4-5.6
		c0.3-1.9,0.5-3.7,0.5-5.3c0-1.2-0.1-2.4-0.4-3.5s-0.7-2.1-1.2-2.9c-0.6-0.8-1.3-1.5-2.2-2c-0.9-0.5-2-0.7-3.3-0.7
		c-1.2,0-2.4,0.3-3.8,0.8s-2.6,1.3-3.8,2.4c-1.2,1.1-2.3,2.5-3.3,4.2s-1.7,3.8-2.2,6.2L957.8,645z"/>
	<path class="st0" d="M1000,613.3h12.9l4.8,22.8c1,5,1.9,9.6,2.6,13.8h0.3c2-4.1,4.2-8.5,6.7-13l12.8-23.6h14.3l-30.5,53.8
		c-2,3.6-4.1,6.9-6.1,9.9c-2.1,3-4.3,5.6-6.7,7.8c-2.4,2.2-5.1,3.9-8,5.1c-2.9,1.2-6.3,1.8-10,1.8c-2.8,0-5-0.2-6.8-0.7l2.1-10.1
		c1.4,0.3,2.7,0.4,4.1,0.4c2,0,3.9-0.3,5.6-1s3.2-1.7,4.7-3.1c1.5-1.4,2.9-3.1,4.3-5.2c1.4-2.1,2.9-4.6,4.4-7.4L1000,613.3z"/>
	<path class="st0" d="M1096.4,623.1h30.6l6.1-29.6h13.1l-14.9,71.8h-13.1l6.5-31.2h-30.5l-6.5,31.2h-13.1l14.9-71.8h13.1
		L1096.4,623.1z"/>
	<path class="st0" d="M1208.1,610.9c0,4.3-1.1,7.8-3.3,10.6s-5.3,5.1-9.4,6.8v0.2c1.6,0.4,3,1.1,4.3,1.9c1.3,0.8,2.3,1.8,3.2,3
		c0.9,1.1,1.5,2.4,1.9,3.8c0.4,1.4,0.6,2.8,0.6,4.3c0,4.8-1.5,9-4.4,12.7s-7.3,6.5-13.1,8.4c-2.6,0.8-5.5,1.4-8.8,1.9
		c-3.3,0.4-7,0.6-11.1,0.6h-20.4l14.9-71.8h20c2.9,0,5.4,0.2,7.6,0.5s4.2,0.8,6,1.4c3.9,1.4,6.8,3.4,8.9,6.1
		C1207.1,604.2,1208.1,607.4,1208.1,610.9z M1167.2,634.1l-4.2,20.2h6.8c6,0,10.6-0.6,13.7-1.8c3.1-1.2,5.3-2.8,6.7-4.8s2-4.2,2-6.5
		c0-1.5-0.4-2.8-1.2-3.9c-0.8-1.1-2.1-1.9-3.9-2.5c-0.8-0.3-1.8-0.5-2.9-0.6c-1.1-0.1-2.5-0.2-4.3-0.2L1167.2,634.1L1167.2,634.1z
		 M1179,623.1c2.1,0,3.9-0.1,5.4-0.3c1.4-0.2,2.7-0.5,3.7-0.9c2.2-0.9,3.9-2.2,5.1-3.9s1.8-3.7,1.8-6.1c0-1.4-0.4-2.6-1.1-3.8
		c-0.7-1.1-1.9-2-3.6-2.7c-0.9-0.3-1.9-0.6-3.2-0.8s-2.8-0.3-4.5-0.3h-9.1l-3.9,18.6h9.4L1179,623.1L1179,623.1z"/>
	<path class="st0" d="M1253.2,642.9c0-1.6-0.4-3-1.3-4c-0.9-1-2-1.9-3.4-2.6c-1.4-0.7-3-1.3-4.9-1.8c-1.8-0.5-3.7-1.1-5.7-1.6
		c-2.3-0.7-4.4-1.6-6.3-2.5c-1.9-0.9-3.6-2.2-5.1-3.6c-1.4-1.4-2.6-3.1-3.4-5.1s-1.2-4.3-1.2-7c0-3.4,0.6-6.4,1.9-9.2
		c1.2-2.8,3-5.1,5.3-7.1s5-3.5,8.2-4.6s6.8-1.6,10.8-1.6c4.2,0,8.4,0.5,12.6,1.4c4.1,0.9,7.8,2,10.9,3.4l-2.4,10.9
		c-4-1.6-7.6-2.8-10.8-3.5s-6.3-1.1-9.5-1.1c-4.3,0-7.6,0.9-10,2.7s-3.6,4.2-3.6,7.2c0,1.6,0.3,3,1,4.1c0.6,1.1,1.5,2.1,2.6,2.8
		c1.1,0.8,2.3,1.4,3.8,2c1.4,0.6,3,1.1,4.6,1.6c2.3,0.7,4.6,1.5,7,2.3c2.3,0.8,4.4,1.9,6.3,3.2c1.9,1.3,3.4,3,4.5,5s1.7,4.6,1.7,7.6
		c0,3.9-0.7,7.4-2.2,10.5s-3.6,5.7-6.3,7.8s-6.1,3.8-10,4.9c-3.9,1.1-8.2,1.7-13,1.7c-2.5,0-4.9-0.2-7.2-0.5s-4.4-0.7-6.3-1.2
		c-1.9-0.5-3.6-1-5.1-1.6s-2.6-1.2-3.5-1.7l2.3-10.8c2.7,1.3,5.8,2.4,9.2,3.4s7,1.4,10.8,1.4c2.7,0,5.2-0.3,7.4-0.9
		c2.2-0.6,4.1-1.4,5.6-2.4s2.8-2.4,3.6-4C1252.8,646.7,1253.2,644.9,1253.2,642.9z"/>
	<path class="st0" d="M1315,642.9c0-1.6-0.4-3-1.3-4c-0.9-1-2-1.9-3.4-2.6c-1.4-0.7-3-1.3-4.9-1.8c-1.8-0.5-3.7-1.1-5.7-1.6
		c-2.3-0.7-4.4-1.6-6.3-2.5c-1.9-0.9-3.6-2.2-5.1-3.6c-1.4-1.4-2.6-3.1-3.4-5.1s-1.2-4.3-1.2-7c0-3.4,0.6-6.4,1.9-9.2
		c1.2-2.8,3-5.1,5.3-7.1s5-3.5,8.2-4.6s6.8-1.6,10.8-1.6c4.2,0,8.4,0.5,12.6,1.4c4.1,0.9,7.8,2,10.9,3.4l-2.3,10.9
		c-4-1.6-7.6-2.8-10.8-3.5s-6.3-1.1-9.5-1.1c-4.3,0-7.6,0.9-10,2.7s-3.6,4.2-3.6,7.2c0,1.6,0.3,3,1,4.1c0.6,1.1,1.5,2.1,2.6,2.8
		c1.1,0.8,2.3,1.4,3.8,2s3,1.1,4.6,1.6c2.3,0.7,4.6,1.5,7,2.3c2.3,0.8,4.4,1.9,6.3,3.2c1.9,1.3,3.4,3,4.5,5s1.7,4.6,1.7,7.6
		c0,3.9-0.7,7.4-2.2,10.5s-3.6,5.7-6.3,7.8s-6.1,3.8-10,4.9c-3.9,1.1-8.2,1.7-13,1.7c-2.5,0-4.9-0.2-7.2-0.5s-4.4-0.7-6.3-1.2
		c-1.9-0.5-3.6-1-5.1-1.6s-2.6-1.2-3.5-1.7l2.3-10.8c2.7,1.3,5.8,2.4,9.2,3.4c3.4,0.9,7,1.4,10.8,1.4c2.7,0,5.2-0.3,7.4-0.9
		c2.2-0.6,4.1-1.4,5.6-2.4s2.8-2.4,3.6-4C1314.6,646.7,1315,644.9,1315,642.9z"/>
	<path class="st0" d="M1400.9,665.3h-13.1l12.6-60.8h-22.5l2.2-11h58.2l-2.3,11h-22.5L1400.9,665.3z"/>
	<path class="st0" d="M1478.3,626.3c0,2.9-0.7,5.5-2.1,7.8c-1.4,2.3-3.5,4.3-6.3,5.9c-2.8,1.6-6.2,2.9-10.2,3.7
		c-4,0.9-8.7,1.3-13.9,1.3c-0.6,0-1.4,0-2.3-0.1v0.3c0,1.9,0.3,3.5,0.8,5c0.6,1.4,1.4,2.6,2.4,3.5c1.1,0.9,2.3,1.5,3.8,2
		c1.5,0.4,3.2,0.6,5,0.6c2.8,0,5.7-0.3,8.8-1s5.8-1.6,8-2.7l-2.3,11.2c-2.2,0.9-4.7,1.6-7.6,2.2c-2.8,0.6-5.9,0.8-9.1,0.8
		c-3.8,0-7.2-0.5-10-1.6s-5.2-2.5-7-4.4s-3.2-4.1-4.1-6.7c-0.9-2.6-1.3-5.4-1.3-8.5c0-2.8,0.3-5.5,0.9-8.2c0.6-2.7,1.4-5.3,2.5-7.8
		s2.5-4.8,4.1-6.9c1.6-2.1,3.5-4,5.7-5.5c2.2-1.6,4.6-2.8,7.3-3.7s5.6-1.3,8.7-1.3c2.8,0,5.2,0.3,7.5,1c2.2,0.7,4.1,1.6,5.7,2.9
		c1.6,1.2,2.8,2.7,3.6,4.5C1477.9,622.2,1478.3,624.1,1478.3,626.3z M1465.5,626.3c0-1.2-0.5-2.2-1.4-3.1c-0.9-0.9-2.3-1.3-4.2-1.3
		c-1.4,0-2.9,0.3-4.4,0.9c-1.5,0.6-2.9,1.4-4.2,2.5s-2.5,2.5-3.5,4.1s-1.9,3.5-2.5,5.6c3.8,0,7-0.2,9.5-0.8c2.6-0.5,4.6-1.2,6.2-2
		c1.6-0.8,2.7-1.8,3.4-2.8C1465.2,628.5,1465.5,627.4,1465.5,626.3z"/>
	<path class="st0" d="M1526.5,624.9c-1.9-0.9-3.9-1.5-5.8-1.9c-1.9-0.4-3.6-0.6-5.2-0.6c-2.4,0-4.5,0.4-6.3,1.2s-3.5,1.8-4.8,3.1
		c-1.4,1.3-2.5,2.7-3.5,4.3c-0.9,1.6-1.7,3.3-2.3,5s-1,3.4-1.3,5.1c-0.3,1.7-0.4,3.2-0.4,4.5c0,2,0.2,3.7,0.8,5.1
		c0.5,1.4,1.2,2.5,2.1,3.3c0.9,0.8,2,1.4,3.2,1.7s2.6,0.5,4,0.5c2.4,0,4.9-0.3,7.5-1s5.2-1.6,7.8-2.8l-2.3,11.2
		c-1.8,0.8-4.1,1.4-6.8,2.1c-2.7,0.6-5.5,0.9-8.6,0.9c-2.6,0-5.2-0.4-7.7-1.1s-4.7-1.9-6.5-3.6c-1.9-1.6-3.4-3.7-4.6-6.3
		s-1.7-5.7-1.7-9.4c0-2.4,0.2-4.9,0.7-7.5s1.2-5.2,2.3-7.7c1-2.5,2.4-4.9,4-7.2s3.6-4.3,5.8-6.1c2.3-1.7,4.9-3.1,7.9-4.1
		s6.3-1.5,9.9-1.5c2,0,4.4,0.3,7.1,0.8s4.9,1.2,6.8,2L1526.5,624.9z"/>
	<path class="st0" d="M1570.2,633.7c0.2-1.1,0.4-2.1,0.5-3s0.2-1.6,0.2-2.2c0-1.8-0.5-3.2-1.5-4.2s-2.6-1.5-4.7-1.5
		c-2.6,0-5,0.7-7.3,2.1c-2.3,1.4-4.1,3.4-5.6,5.8c-0.3,0.5-0.6,1-0.8,1.5c-0.3,0.5-0.5,1.1-0.8,1.8s-0.5,1.5-0.7,2.3
		c-0.2,0.9-0.5,1.9-0.7,3.1l-5.4,25.9h-12.7l16.1-77.7h12.7l-5,24.3c-0.4,2-1.1,4.7-2.1,7.9h0.2c0.9-1,1.9-2,3-3
		c1.2-0.9,2.4-1.8,3.8-2.5c1.4-0.7,2.9-1.3,4.5-1.7s3.3-0.6,5.1-0.6c2,0,4,0.3,5.8,0.9c1.8,0.6,3.4,1.5,4.8,2.6
		c1.4,1.1,2.5,2.5,3.2,4.2c0.8,1.6,1.2,3.5,1.2,5.7c0,1.3-0.1,2.8-0.4,4.4c-0.3,1.6-0.5,3.2-0.9,4.8l-6.4,30.7h-12.7L1570.2,633.7z"
		/>
	<path class="st0" d="M1602.5,665.3h-12.7l10.8-52h10.8v6.5h0.2c0.9-1,1.9-2,3-3c1.2-0.9,2.4-1.8,3.8-2.5c1.4-0.7,2.9-1.3,4.5-1.7
		s3.3-0.6,5.1-0.6c2,0,4,0.3,5.8,0.9c1.8,0.6,3.4,1.5,4.8,2.6c1.4,1.1,2.5,2.5,3.2,4.2c0.8,1.6,1.2,3.5,1.2,5.7
		c0,1.3-0.1,2.8-0.4,4.4s-0.5,3.2-0.9,4.8l-6.4,30.7h-12.7l6.5-31.7c0.2-1.1,0.4-2.1,0.5-3s0.2-1.6,0.2-2.2c0-1.8-0.5-3.2-1.5-4.2
		s-2.6-1.5-4.7-1.5c-2.6,0-5,0.7-7.3,2.1c-2.3,1.4-4.1,3.4-5.6,5.8c-0.3,0.5-0.6,1-0.8,1.5c-0.3,0.5-0.5,1.1-0.8,1.8
		s-0.5,1.5-0.7,2.3c-0.2,0.9-0.5,1.9-0.7,3.1L1602.5,665.3z"/>
	<path class="st0" d="M1680.1,612c3.1,0,5.9,0.4,8.3,1.2c2.5,0.8,4.6,2,6.4,3.7c1.8,1.6,3.1,3.7,4.1,6.2s1.4,5.4,1.4,8.7
		c0,4.6-0.6,9-1.9,13.2c-1.3,4.2-3.1,7.9-5.6,11.1c-2.5,3.2-5.5,5.8-9.1,7.7s-7.9,2.9-12.7,2.9c-3,0-5.8-0.4-8.3-1.2s-4.6-2-6.4-3.7
		c-1.8-1.6-3.1-3.7-4.1-6.1c-1-2.5-1.4-5.4-1.4-8.7c0-4.6,0.6-9,1.9-13.2s3.1-7.9,5.6-11.1c2.4-3.2,5.5-5.8,9.1-7.7
		C1671.1,613,1675.3,612,1680.1,612z M1679,622.5c-1.7,0-3.3,0.3-4.7,1s-2.7,1.6-3.9,2.8s-2.1,2.6-3,4.2c-0.8,1.6-1.5,3.3-2.1,5.1
		s-1,3.7-1.3,5.6s-0.4,3.8-0.4,5.6c0,3,0.7,5.3,2.1,7s3.5,2.6,6.5,2.6c1.7,0,3.3-0.3,4.7-1s2.7-1.6,3.9-2.8c1.1-1.2,2.1-2.6,3-4.2
		c0.9-1.6,1.6-3.3,2.1-5.1c0.6-1.8,1-3.7,1.3-5.6c0.3-1.9,0.4-3.8,0.4-5.6c0-2.9-0.7-5.3-2.1-7C1684.1,623.3,1682,622.5,1679,622.5z
		"/>
	<path class="st0" d="M1720.6,587.6h12.7l-12.8,61.6c-0.3,1.4-0.4,2.5-0.4,3.1c0,1,0.3,1.7,0.9,2.2s1.5,0.7,2.7,0.7s2.5-0.1,3.8-0.4
		l-2.3,10.6c-0.8,0.2-1.9,0.3-3.2,0.5c-1.3,0.1-2.5,0.2-3.7,0.2c-3.8,0-6.6-0.8-8.6-2.5c-1.9-1.7-2.9-4.2-2.9-7.5
		c0-1.7,0.2-3.7,0.7-5.8L1720.6,587.6z"/>
	<path class="st0" d="M1766.2,612c3.1,0,5.9,0.4,8.3,1.2c2.5,0.8,4.6,2,6.4,3.7c1.8,1.6,3.1,3.7,4.1,6.2s1.4,5.4,1.4,8.7
		c0,4.6-0.6,9-1.9,13.2c-1.3,4.2-3.1,7.9-5.6,11.1c-2.5,3.2-5.5,5.8-9.1,7.7s-7.9,2.9-12.7,2.9c-3,0-5.8-0.4-8.3-1.2s-4.6-2-6.4-3.7
		c-1.8-1.6-3.1-3.7-4.1-6.1c-1-2.5-1.4-5.4-1.4-8.7c0-4.6,0.6-9,1.9-13.2c1.3-4.2,3.1-7.9,5.6-11.1c2.4-3.2,5.5-5.8,9.1-7.7
		C1757.2,613,1761.4,612,1766.2,612z M1765.1,622.5c-1.7,0-3.3,0.3-4.7,1s-2.7,1.6-3.9,2.8s-2.1,2.6-3,4.2c-0.8,1.6-1.5,3.3-2.1,5.1
		s-1,3.7-1.3,5.6s-0.4,3.8-0.4,5.6c0,3,0.7,5.3,2.1,7c1.4,1.7,3.5,2.6,6.5,2.6c1.7,0,3.3-0.3,4.7-1s2.7-1.6,3.9-2.8
		c1.1-1.2,2.1-2.6,3-4.2c0.9-1.6,1.6-3.3,2.1-5.1c0.6-1.8,1-3.7,1.3-5.6c0.3-1.9,0.4-3.8,0.4-5.6c0-2.9-0.7-5.3-2.1-7
		C1770.2,623.3,1768.1,622.5,1765.1,622.5z"/>
	<path class="st0" d="M1822.2,659.6c-1.8,2.4-3.9,4.1-6.2,5.3c-2.4,1.2-4.9,1.8-7.6,1.8c-2.3,0-4.4-0.4-6.3-1.3s-3.4-2.1-4.7-3.6
		c-1.3-1.6-2.3-3.5-3-5.7s-1-4.7-1-7.4c0-2.9,0.2-5.8,0.7-8.7s1.2-5.7,2.1-8.4c0.9-2.7,2.1-5.2,3.5-7.6c1.4-2.4,3-4.4,4.9-6.2
		s3.9-3.1,6.2-4.1s4.8-1.5,7.5-1.5c2.5,0,4.8,0.5,7,1.6c2.2,1,4.1,2.7,5.8,4.9h0.2l1.9-5.2h10.8l-10.9,52.5
		c-0.9,4.4-2.2,8.2-3.8,11.4c-1.7,3.2-3.7,5.9-6.2,8s-5.4,3.7-8.9,4.7c-3.4,1-7.3,1.6-11.8,1.6c-3,0-6.1-0.2-9.1-0.7
		c-3.1-0.5-5.9-1.2-8.6-2.3l2.2-10.5c2.2,0.9,4.5,1.6,7,2.2c2.5,0.6,5,0.9,7.5,0.9c3.1,0,5.7-0.4,7.9-1.1c2.2-0.7,4-1.8,5.6-3.3
		c1.5-1.5,2.8-3.3,3.8-5.5s1.8-4.7,2.4-7.6c0.4-1.7,0.8-3.1,1.2-4.1h-0.1L1822.2,659.6L1822.2,659.6z M1828.9,626.5
		c-0.3-0.5-0.7-0.9-1.3-1.4c-0.5-0.5-1.1-0.9-1.8-1.3c-0.7-0.4-1.5-0.7-2.3-0.9s-1.7-0.4-2.7-0.4c-1.7,0-3.3,0.4-4.6,1.2
		c-1.4,0.8-2.6,1.9-3.7,3.2s-2,2.9-2.8,4.6c-0.8,1.7-1.4,3.5-1.9,5.4s-0.9,3.7-1.1,5.5c-0.3,1.8-0.4,3.5-0.4,5c0,3,0.5,5.3,1.4,6.7
		s2.3,2.1,4.2,2.1c1.7,0,3.4-0.5,5.2-1.6c1.7-1.1,3.3-2.6,4.7-4.5c2.1-2.9,3.7-6.9,4.8-12L1828.9,626.5z"/>
	<path class="st0" d="M1848,665.3l10.8-52h12.7l-10.8,52H1848z M1860.9,601.4l2.8-13.8h13.3l-2.8,13.8H1860.9z"/>
	<path class="st0" d="M1924,626.3c0,2.9-0.7,5.5-2.1,7.8s-3.5,4.3-6.3,5.9c-2.8,1.6-6.2,2.9-10.2,3.7c-4,0.9-8.7,1.3-13.9,1.3
		c-0.6,0-1.4,0-2.3-0.1v0.3c0,1.9,0.3,3.5,0.8,5c0.6,1.4,1.4,2.6,2.4,3.5c1.1,0.9,2.3,1.5,3.8,2c1.5,0.4,3.2,0.6,5,0.6
		c2.8,0,5.7-0.3,8.8-1s5.8-1.6,8-2.7l-2.3,11.2c-2.2,0.9-4.7,1.6-7.6,2.2c-2.8,0.6-5.9,0.8-9.1,0.8c-3.8,0-7.2-0.5-10-1.6
		s-5.2-2.5-7-4.4s-3.2-4.1-4.1-6.7c-0.9-2.6-1.3-5.4-1.3-8.5c0-2.8,0.3-5.5,0.9-8.2s1.4-5.3,2.5-7.8s2.5-4.8,4.1-6.9
		c1.6-2.1,3.5-4,5.7-5.5c2.2-1.6,4.6-2.8,7.3-3.7s5.6-1.3,8.7-1.3c2.8,0,5.2,0.3,7.5,1c2.2,0.7,4.1,1.6,5.7,2.9
		c1.6,1.2,2.8,2.7,3.6,4.5C1923.6,622.2,1924,624.1,1924,626.3z M1911.3,626.3c0-1.2-0.5-2.2-1.4-3.1c-0.9-0.9-2.3-1.3-4.2-1.3
		c-1.4,0-2.9,0.3-4.4,0.9c-1.5,0.6-2.9,1.4-4.2,2.5s-2.5,2.5-3.5,4.1s-1.9,3.5-2.5,5.6c3.8,0,7-0.2,9.5-0.8c2.6-0.5,4.6-1.2,6.2-2
		c1.6-0.8,2.7-1.8,3.4-2.8C1910.9,628.5,1911.3,627.4,1911.3,626.3z"/>
	<path class="st0" d="M1954.5,649.5c0-1.1-0.3-1.9-1-2.6s-1.6-1.3-2.6-1.8c-1.1-0.5-2.3-1-3.7-1.4s-2.8-0.9-4.2-1.4
		c-1.3-0.5-2.5-1.1-3.7-1.8s-2.3-1.5-3.2-2.5s-1.7-2.2-2.3-3.6c-0.6-1.4-0.8-3.1-0.8-5c0-2.9,0.6-5.5,1.7-7.6c1.1-2.2,2.6-4,4.5-5.4
		s4-2.5,6.5-3.2s5.1-1,7.8-1c1.5,0,3.1,0.1,4.6,0.3c1.6,0.2,3.1,0.5,4.6,0.8s2.9,0.7,4.3,1.2c1.4,0.4,2.6,0.9,3.7,1.5l-2,9.9
		c-2.7-1.1-5.3-1.9-7.9-2.5c-2.6-0.6-5-0.9-7.3-0.9c-2.5,0-4.4,0.5-5.7,1.5s-2,2.3-2,3.9c0,1,0.2,1.8,0.7,2.4
		c0.5,0.7,1.1,1.2,1.9,1.7c0.8,0.5,1.7,0.9,2.8,1.3c1.1,0.4,2.2,0.8,3.3,1.2c1.5,0.5,3,1.1,4.5,1.8s2.9,1.5,4.1,2.5
		c1.2,1.1,2.2,2.4,3,3.9s1.2,3.5,1.2,5.8c0,3-0.6,5.6-1.7,7.8c-1.1,2.3-2.7,4.1-4.8,5.7c-2.1,1.5-4.5,2.7-7.4,3.5s-6,1.2-9.5,1.2
		c-2,0-3.8-0.1-5.6-0.3s-3.3-0.5-4.7-0.8s-2.6-0.7-3.7-1c-1.1-0.4-1.9-0.7-2.5-1l2.1-10.1c2.4,0.9,4.7,1.7,7.2,2.2s4.9,0.8,7.3,0.8
		c3.6,0,6.3-0.6,8.2-1.8C1953.6,653.4,1954.5,651.7,1954.5,649.5z"/>
</g>
</svg>
